<svg width="24" height="24" viewBox="0 0 24 24" fill="none" xmlns="http://www.w3.org/2000/svg">
<path d="M12.5005 19.9999H10.5005C6.74191 19.9999 4.86262 19.9999 3.60794 19.009C3.40727 18.8505 3.22168 18.6759 3.05329 18.487C2.00049 17.3061 2.00049 15.5374 2.00049 11.9999C2.00049 8.46239 2.00049 6.69365 3.05329 5.51278C3.22168 5.3239 3.40727 5.14923 3.60794 4.99075C4.86262 3.99988 6.74191 3.99988 10.5005 3.99988H13.5005C17.2591 3.99988 19.1384 3.99988 20.393 4.99075C20.5937 5.14923 20.7793 5.3239 20.9477 5.51278C21.8962 6.57672 21.9902 8.11786 21.9995 10.9999" stroke="white" stroke-width="2" stroke-linecap="round" stroke-linejoin="round"/>
<path d="M2.00049 8.99982H22.0005" stroke="white" stroke-width="2" stroke-linejoin="round"/>
<path d="M22 13.9999L16 19.9999M22 19.9999L16 13.9999" stroke="white" stroke-width="2" stroke-linecap="round"/>
</svg>
