<svg width="50" height="50" viewBox="0 0 50 50" fill="none" xmlns="http://www.w3.org/2000/svg">
<path d="M33.3379 28.125C33.3379 29.8509 34.737 31.25 36.4629 31.25C38.1888 31.25 39.5879 29.8509 39.5879 28.125C39.5879 26.3991 38.1888 25 36.4629 25C34.737 25 33.3379 26.3991 33.3379 28.125Z" stroke="white" stroke-width="2"/>
<path d="M20.8353 31.25L6.25195 45.8333M20.8353 45.8333L6.25195 31.25" stroke="white" stroke-width="2" stroke-linecap="round"/>
<path d="M20.8385 14.5833H33.3385C39.2311 14.5833 42.1774 14.5833 44.008 16.4139C45.8385 18.2445 45.8385 21.1908 45.8385 27.0833V31.25C45.8385 37.1426 45.8385 40.0888 44.008 41.9194C42.1774 43.75 39.2311 43.75 33.3385 43.75H28.1282M37.5052 14.5833C37.5052 12.6459 37.5052 11.6772 37.2922 10.8824C36.7143 8.72556 35.0297 7.04088 32.8728 6.46296C32.078 6.25 31.1093 6.25 29.1719 6.25H20.8385C12.9818 6.25 9.05343 6.25 6.61265 8.69078C4.17188 11.1316 4.17188 15.0599 4.17188 22.9167V25" stroke="white" stroke-width="2" stroke-linecap="round"/>
</svg>
